<svg xmlns="http://www.w3.org/2000/svg" viewBox="496 3420 19624 23024" preserveAspectRatio="xMidYMid meet"><path fill="currentColor" d="M 10355,26392 C 10003,26392 9649,26405 9297,26388 8973,26372 8655,26305 8383,26108 8211,25984 8085,25828 8051,25609 8012,25353 7964,25099 7921,24845 7904,24746 7932,24679 8035,24638 8323,24522 8614,24410 8893,24275 9223,24116 9602,24056 9873,23772 10120,23513 10387,23272 10638,23017 10918,22733 11200,22451 11462,22152 11690,21891 11891,21608 12103,21334 12121,21311 12135,21285 12147,21258 12242,21044 12219,21010 11987,21029 11305,21084 10627,21031 9950,20952 9611,20912 9270,20881 8939,20810 8660,20750 8386,20654 8123,20542 7772,20393 7436,20210 7091,20048 6353,19701 5618,19357 4959,18860 4480,18499 4024,18116 3583,17713 2662,16872 1936,15885 1361,14782 1158,14392 963,13998 753,13612 433,13025 418,12436 671,11817 829,11432 931,11025 1063,10629 1326,9839 1582,9048 1973,8305 2146,7975 2242,7605 2389,7260 2443,7134 2524,7005 2626,6916 3040,6551 3456,6188 3893,5851 4104,5689 4362,5588 4599,5459 4995,5244 5390,5025 5789,4815 6200,4598 6620,4410 7080,4308 7720,4165 8355,3995 8991,3832 9098,3805 9200,3755 9306,3722 9451,3678 9601,3596 9743,3607 10334,3650 10895,3454 11472,3428 11985,3404 12503,3436 13017,3467 13362,3488 13713,3518 14045,3605 14304,3673 14552,3814 14780,3960 15110,4173 15417,4420 15734,4653 15762,4674 15793,4692 15818,4716 16084,4961 16358,5198 16610,5457 16742,5592 16837,5765 16945,5923 17037,6056 17122,6193 17213,6327 17381,6574 17542,6827 17723,7063 17959,7370 18217,7660 18457,7964 18562,8096 18677,8232 18738,8385 18953,8930 19164,9478 19345,10035 19792,11411 20001,12836 20113,14271 20140,14613 20046,14970 19972,15313 19856,15846 19749,16387 19566,16900 19320,17589 19006,18254 18718,18929 18512,19416 18330,19915 18086,20382 17790,20947 17445,21487 17113,22033 16931,22334 16764,22651 16536,22914 16144,23364 15711,23778 15293,24205 15182,24318 15063,24422 14948,24531 14350,25097 13734,25646 13018,26053 12745,26208 12412,26294 12097,26331 11520,26400 10937,26409 10357,26442 10356,26425 10356,26409 10355,26392 Z"/></svg>
